<?xml version="1.0" encoding="utf-8"?>
<!-- Generator: Adobe Illustrator 15.1.0, SVG Export Plug-In . SVG Version: 6.00 Build 0)  -->
<!DOCTYPE svg PUBLIC "-//W3C//DTD SVG 1.1//EN" "http://www.w3.org/Graphics/SVG/1.1/DTD/svg11.dtd">
<svg version="1.1" id="Layer_1" xmlns="http://www.w3.org/2000/svg" xmlns:xlink="http://www.w3.org/1999/xlink" x="0px" y="0px"
	 width="612px" height="792px" viewBox="0 0 612 792" enable-background="new 0 0 612 792" xml:space="preserve">
<g>
	<path fill="#F47920" d="M468.84,390.596c-0.002-0.671,0.483-1.106,0.943-0.134c0.444,0.964,0.958,2.491,1.669,2.688
		c0.601,0.166,0.984-0.043,1.493-0.678c0.559-0.707,1.091-1.517,1.558-1.347c0.444,0.161,0.273,1.18,0.136,2.198
		c-0.116,0.912-0.158,1.754,0.298,2.302c0.556,0.669,2.191,0.558,3.682,0.519c2.153-0.064,4.265-0.164,4.443,0.535
		c0.182,0.725-1.613,1.487-3.335,2.373c-1.182,0.601-2.085,1.217-2.479,1.962c-0.609,1.147,0.374,2.698,1.131,4.121
		c0.755,1.409,0.102,1.895-0.771,1.349C472.011,402.977,468.784,397.268,468.84,390.596"/>
	<path fill="#25A4C4" d="M496.148,382.502c-5.304,0-8.815,4.313-9.049,7.864c0,0.002,0-0.005,0,0c0,0,0.594-0.005,1.18-1.035
		c1.502-2.646,4.567-3.886,7.567-3.385c3.471,0.592,5.052,3.58,5.026,6.222c-0.035,2.825-1.083,4.98-3.38,4.98
		c-1.228,0-2.218-0.989-2.218-2.2c0-1.215,0.99-2.204,2.218-2.204c0.725,0,1.298,0.345,1.704,0.876
		c0.072,0.083,0.195,0.057,0.195-0.052c-0.118-2.439-1.755-4.456-4.991-4.456c-3.521,0-6.195,3.074-6.206,6.566
		c0,1.315,0.321,2.553,0.889,3.65c1.602,3.185,3.931,5.588,7.03,7.358c6.463-3.743,9.109-10.49,9.109-15.189
		C505.222,386.65,501.273,382.502,496.148,382.502"/>
	<path fill="#69A242" d="M503.498,383.174c-2.971-6.256-9.284-10.446-16.463-10.446c-7.339,0-13.649,4.34-16.532,10.594
		c0,0-0.407,0.869-0.739,1.972c-1.129,3.751,2.566,4.67,3.078,1.336c0.214-1.379-0.039-2.184,0.748-3.312
		c1.242-1.486,3.1-2.43,5.188-2.43c3.705,0,6.328,2.764,6.756,5.646c-0.437,0.096-0.779-0.303-1.09-0.589
		c-0.369-0.334-1.628-1.574-3.915-1.574c-2.554,0-4.438,1.618-5.213,3.574c-0.057,0.102-0.02,0.216,0.135,0.155v0.002
		c0.654-0.266,1.386-0.462,2.186-0.508c1.396-0.091,3.637,0.171,5.521,2.21c1.117,1.201,1.995,0.944,1.995,0.944
		c0.101-1.61,0.746-3.266,0.871-3.562c2.02-4.83-0.14-7.778-4.813-8c-1.842-0.087-3.289,0.45-4.139,0.728
		c0,0-0.424,0.18-0.531-0.057c-0.108-0.241,0.337-0.483,0.337-0.483c1.455-0.801,3.03-1.181,4.693-1.181
		c4.392,0,5.643,2.168,6.306,3.13c1.838,2.675,5.629,0.394,2.696-2.456c-1.521-1.228-3.438-2.432-7.812-2.438
		c-2.424-0.009-4.909,0.971-6.758,2.214c0,0-0.416,0.293-0.58,0.071c-0.171-0.219,0.229-0.526,0.232-0.526
		c2.189-1.708,5.19-2.897,8.187-2.897c3.404,0,6.354,1.106,8.764,3.078c1.715,1.408,3.269,2.111,5.022,2.357
		c2.342,0.332,3.986,1.131,5.705,2.563C503.423,383.35,503.532,383.298,503.498,383.174"/>
	<g>
		<g>
			<path fill="#69A242" d="M496.801,374.367c0.01,0.011,0.017,0.016,0.021,0.027c0.046,0.094,0.156,0.094,0.184-0.03
				c0.738-2.809-0.479-5.6-2.891-6.331l-4.577-1.403c-1.299-0.391-1.974-0.994-2.384-1.802c0-0.009,0-0.009,0-0.009
				c-0.006-0.009-0.006-0.011-0.017-0.014c-0.045-0.104-0.158-0.116-0.186,0.01c-0.725,2.8,0.492,5.575,2.896,6.305l4.066,1.228
				c1.522,0.487,2.332,1.055,2.884,2.013C496.798,374.358,496.801,374.361,496.801,374.367"/>
		</g>
	</g>
	<path fill="#697A83" d="M477.667,409.631c-1.627,0-3.08,0.648-4.09,1.818l-0.091,0.105l-0.09-0.108
		c-0.963-1.175-2.416-1.815-4.09-1.815c-3.413,0-5.795,2.361-5.795,5.74c0,0,0,7.249,0,7.48h3.124c0-0.231,0-7.559,0-7.559
		c0-1.538,1.101-2.614,2.671-2.614c2.314,0,2.564,1.829,2.564,2.614c0,0,0,7.327,0,7.559h3.126c0-0.231,0-7.559,0-7.559
		c0-1.512,1.121-2.614,2.67-2.614c2.403,0,2.591,2.002,2.591,2.614c0,0,0,7.327,0,7.559h3.128c0-0.231,0-7.48,0-7.48
		C483.386,411.887,481.143,409.631,477.667,409.631 M444.457,422.841h3.005v-12.882h-3.005V422.841z M383.821,409.633
		c-3.621,0-6.56,3.022-6.56,6.75c0,3.729,2.938,6.745,6.56,6.745c1.854,0,2.86-0.743,3.613-1.554v1.274h2.944v-6.432
		c0-0.013,0.002-0.024,0.002-0.037C390.381,412.655,387.443,409.633,383.821,409.633z M383.821,420.226
		c-1.963,0-3.555-1.719-3.555-3.843c0-2.125,1.592-3.845,3.555-3.845s3.557,1.72,3.557,3.845
		C387.378,418.507,385.784,420.226,383.821,420.226z M416.091,416.383c0,2.122-1.08,3.843-3.235,3.843
		c-2.136,0-3.233-1.719-3.233-3.843v-6.427h-3.005v6.427c0,4.103,2.616,6.745,6.236,6.745c3.621,0,6.24-2.643,6.24-6.745v-6.425
		h-3.003V416.383z M435.771,416.414v6.427h3.007v-6.427c0-2.813,1.562-3.617,3.684-3.651v-2.809
		C438.292,409.954,435.771,411.995,435.771,416.414z M458.948,416.383c0,2.122-1.081,3.843-3.235,3.843
		c-2.136,0-3.232-1.719-3.232-3.843v-6.427h-3.007v6.427c0,4.103,2.617,6.745,6.239,6.745c3.621,0,6.24-2.643,6.24-6.745v-6.425
		h-3.005V416.383z M427.227,409.633c-3.62,0-6.559,3.022-6.559,6.75c0,3.729,2.937,6.745,6.559,6.745
		c1.854,0,2.861-0.743,3.612-1.554v1.274h2.946v-6.432c0-0.013,0-0.024,0-0.037C433.785,412.655,430.848,409.633,427.227,409.633z
		 M427.227,420.226c-1.964,0-3.554-1.719-3.554-3.843c0-2.125,1.59-3.845,3.554-3.845c1.963,0,3.555,1.72,3.555,3.845
		C430.781,418.507,429.189,420.226,427.227,420.226z"/>
	<path fill="#697A83" d="M405.056,427.277v-10.856c0-0.013,0-0.025,0-0.038c0-3.728-2.932-6.75-6.556-6.75
		c-3.623,0-6.558,3.022-6.558,6.75c0,3.729,2.935,6.745,6.558,6.745c1.849,0,2.854-0.74,3.604-1.549v5.696h2.951 M398.5,420.226
		c-1.965,0-3.557-1.719-3.557-3.843c0-2.125,1.592-3.845,3.557-3.845s3.556,1.72,3.556,3.845
		C402.056,418.507,400.465,420.226,398.5,420.226z"/>
	<path fill="#697A83" d="M384.755,399.24h-1.478c0,0-1.731,4.902-1.865,5.285c-0.136-0.383-1.868-5.285-1.868-5.285h-1.586
		l2.712,7.466h1.482l2.711-7.466H384.755"/>
	<path fill="#697A83" d="M385.53,402.979c0,2.188,1.637,3.906,3.728,3.906c0.871,0,1.703-0.373,2.313-1.022c0,0.248,0,0.843,0,0.843
		h1.454v-3.727c0-2.198-1.644-3.922-3.74-3.922C387.182,399.057,385.53,400.778,385.53,402.979 M387.027,402.979
		c0-1.394,1.014-2.521,2.258-2.521c1.245,0,2.257,1.128,2.257,2.521c0,1.374-1.015,2.491-2.257,2.491
		C388.02,405.47,387.027,404.374,387.027,402.979z"/>
	<path fill="#697A83" d="M394.736,402.199v4.507h1.481v-4.546c0-0.964,0.785-1.688,1.823-1.688c1.029,0,1.81,0.723,1.81,1.688v4.546
		h1.481v-4.507c0-1.788-1.412-3.143-3.291-3.143C396.155,399.057,394.736,400.409,394.736,402.199"/>
	<path fill="#697A83" d="M411.057,402.991c0,2.179,1.648,3.892,3.755,3.892c2.104,0,3.754-1.713,3.754-3.892
		c0-2.207-1.648-3.935-3.754-3.935C412.705,399.057,411.057,400.784,411.057,402.991 M412.566,402.991
		c0-1.376,1.006-2.494,2.245-2.494c1.247,0,2.257,1.118,2.257,2.494c0,1.342-1.012,2.439-2.257,2.439
		C413.572,405.431,412.566,404.337,412.566,402.991z"/>
	<path fill="#697A83" d="M426.544,399.24h-1.417v4.49c0,0.96-0.78,1.689-1.812,1.689c-1.036,0-1.821-0.729-1.821-1.689v-4.49h-1.483
		v4.49c0,1.789,1.419,3.142,3.305,3.142c1.887,0,3.307-1.351,3.307-3.142v-4.49H426.544"/>
	<path fill="#697A83" d="M434.743,399.24h-1.476c0,0-1.733,4.903-1.868,5.285c-0.134-0.382-1.865-5.285-1.865-5.285h-1.586
		l2.708,7.466h1.485l2.708-7.466H434.743"/>
	<path fill="#697A83" d="M445.464,399.815c-0.653,0.579-0.998,1.438-0.998,2.481v4.406h1.481v-4.437
		c0-0.592,0.171-1.047,0.503-1.353c0.354-0.328,0.901-0.468,1.574-0.405l0.173,0.015v-1.408l-0.141-0.016
		C447.041,398.979,446.118,399.231,445.464,399.815"/>
	<path fill="#697A83" d="M408.334,404.401c-0.39,0.654-1.052,1.029-1.846,1.029c-1.238,0-2.244-1.103-2.244-2.452
		c0-1.366,1.008-2.48,2.244-2.48c0.796,0,1.467,0.386,1.867,1.065h1.62l-0.006-0.013c-0.518-1.538-1.855-2.494-3.481-2.494
		c-2.063,0-3.74,1.758-3.74,3.922c0,2.146,1.678,3.894,3.74,3.894c1.635,0,2.961-0.947,3.469-2.471H408.334"/>
	<path fill="#697A83" d="M441.15,404.401c-0.385,0.712-1.042,1.086-1.907,1.086c-0.976,0-2.056-0.708-2.276-2.045
		c0.188,0,5.976,0,5.976,0l0.002-0.19c0-1.231-0.425-2.332-1.194-3.11c-0.697-0.699-1.611-1.085-2.574-1.085
		c-2.07,0-3.753,1.758-3.753,3.922c0,2.181,1.679,3.894,3.822,3.894c1.711,0,2.989-0.899,3.516-2.471H441.15 M439.174,400.439
		c0.935,0,1.759,0.653,2.086,1.631h-4.193C437.427,401.004,438.385,400.439,439.174,400.439z"/>
	<polyline fill="#697A83" points="486.896,420.534 486.069,420.534 486.069,420.006 488.329,420.006 488.329,420.534 
		487.501,420.534 487.501,422.862 486.896,422.862 486.896,420.534 	"/>
	<polyline fill="#697A83" points="488.825,420.006 489.676,420.006 490.322,421.969 490.329,421.969 490.939,420.006 
		491.792,420.006 491.792,422.86 491.225,422.86 491.225,420.837 491.218,420.837 490.541,422.86 490.076,422.86 489.399,420.86 
		489.391,420.86 489.391,422.86 488.825,422.86 488.825,420.006 	"/>
</g>
</svg>
