<svg id="Layer_1" data-name="Layer 1" xmlns="http://www.w3.org/2000/svg" viewBox="0 0 443.77 512"><defs><style>.cls-1{fill:#f47920;}.cls-2{fill:#25a4c4;}.cls-3{fill:#69a242;}</style></defs><path class="cls-1" d="M34.13,315.56c0-8.19,5.89-13.49,11.5-1.64C51.05,325.68,57.32,344.31,66,346.7c7.32,2,12-.52,18.21-8.27,6.81-8.62,13.3-18.5,19-16.43,5.42,2,3.33,14.39,1.65,26.81-1.41,11.13-1.93,21.4,3.63,28.08,6.78,8.16,26.73,6.81,44.91,6.33,26.26-.78,52-2,54.19,6.53,2.22,8.84-19.68,18.14-40.67,28.94-14.42,7.33-25.43,14.84-30.23,23.93-7.43,14,4.56,32.91,13.79,50.26,9.21,17.19,1.24,23.11-9.4,16.45C72.8,466.56,33.45,396.93,34.13,315.56" transform="translate(-34.12)"/><path class="cls-2" d="M367.2,216.84c-64.69,0-107.52,52.6-110.37,95.91h0s7.24-.06,14.39-12.62c18.32-32.28,55.71-47.4,92.3-41.29,42.33,7.23,61.61,43.66,61.3,75.89-.43,34.45-13.21,60.75-41.22,60.75a26.86,26.86,0,1,1,0-53.72c8.84,0,15.83,4.21,20.78,10.69.88,1,2.38.7,2.38-.63-1.44-29.75-21.4-54.34-60.87-54.34-42.94,0-75.56,37.49-75.69,80.08A96.48,96.48,0,0,0,281,422.09c19.53,38.84,47.94,68.15,85.74,89.74,78.82-45.65,111.1-127.94,111.1-185.26,0-59.13-48.18-109.73-110.68-109.73" transform="translate(-34.12)"/><path class="cls-3" d="M456.84,225C420.6,148.74,343.6,97.64,256.05,97.64c-89.51,0-166.48,52.93-201.64,129.21a196.88,196.88,0,0,0-9,24.05c-13.76,45.75,31.31,57,37.55,16.3,2.61-16.82-.48-26.64,9.12-40.4a82.18,82.18,0,0,1,63.28-29.64c45.19,0,77.18,33.72,82.4,68.87-5.32,1.17-9.5-3.7-13.29-7.19-4.5-4.07-19.86-19.19-47.75-19.19-31.15,0-54.12,19.74-63.58,43.59-.69,1.24-.24,2.64,1.64,1.89v0a83.62,83.62,0,0,1,26.66-6.2c17-1.11,44.35,2.09,67.33,27,13.62,14.64,24.33,11.51,24.33,11.51,1.23-19.63,9.1-39.83,10.63-43.44,24.63-58.91-1.71-94.87-58.7-97.57-22.46-1.06-40.11,5.49-50.48,8.88,0,0-5.17,2.2-6.48-.7s4.11-5.89,4.11-5.89a117,117,0,0,1,57.25-14.41c53.56,0,68.82,26.44,76.9,38.18,22.42,32.62,68.66,4.8,32.89-29.95-18.56-15-41.94-29.67-95.27-29.73-29.57-.11-59.88,11.84-82.43,27,0,0-5.07,3.57-7.07.86s2.78-6.42,2.83-6.42c26.71-20.82,63.31-35.33,99.85-35.33,41.52,0,77.5,13.48,106.89,37.54,20.91,17.17,39.86,25.74,61.25,28.74,28.57,4.06,48.62,13.8,69.59,31.26,1.08.72,2.41.09,2-1.42" transform="translate(-34.12)"/><path class="cls-3" d="M375.15,117.62a.9.9,0,0,1,.25.33c.56,1.15,1.91,1.15,2.24-.37,9-34.26-5.83-68.3-35.25-77.22L286.56,23.25c-15.84-4.76-24.07-12.12-29.07-22V1.16c-.07-.1-.07-.13-.21-.17-.54-1.26-1.92-1.42-2.26.12-8.84,34.15,6,68,35.33,76.9L340,93c18.56,6,28.44,12.87,35.17,24.55,0,0,0,0,0,.09" transform="translate(-34.12)"/></svg>